<svg xmlns="http://www.w3.org/2000/svg" viewBox="0 0 800 180" width="800" height="180">
  <defs>
    <style>
      @import url('https://fonts.googleapis.com/css2?family=Inter:wght@600;700&amp;display=swap');
      .title { font-family: 'Inter', system-ui, -apple-system, sans-serif; font-weight: 700; font-size: 58px; fill: #171717; }
      .subtitle { font-family: 'Inter', system-ui, -apple-system, sans-serif; font-weight: 600; font-size: 13.5px; fill: #737373; letter-spacing: 0.2em; }
    </style>
    <linearGradient id="l-left" x1="0%" y1="0%" x2="0%" y2="100%">
      <stop offset="0%" stop-color="#10B981"/>
      <stop offset="50%" stop-color="#3B82F6"/>
      <stop offset="100%" stop-color="#8B5CF6"/>
    </linearGradient>
    <linearGradient id="l-right" x1="0%" y1="0%" x2="0%" y2="100%">
      <stop offset="0%" stop-color="#059669"/>
      <stop offset="50%" stop-color="#2563EB"/>
      <stop offset="100%" stop-color="#7C3AED"/>
    </linearGradient>
    <linearGradient id="l-top" x1="0%" y1="0%" x2="100%" y2="0%">
      <stop offset="0%" stop-color="#6EE7B7"/>
      <stop offset="50%" stop-color="#93C5FD"/>
      <stop offset="100%" stop-color="#C4B5FD"/>
    </linearGradient>
  </defs>
  <!-- Sliced Monolith — centered with text -->
  <g transform="translate(200, 8) scale(1.15)">
    <polygon points="25,37 70,15 115,37 70,59" fill="url(#l-top)"/>
    <polygon points="25,37 70,59 70,65 25,43" fill="url(#l-left)"/>
    <polygon points="70,59 115,37 115,43 70,65" fill="url(#l-right)"/>
    <polygon points="25,49 70,71 70,76 25,54" fill="url(#l-left)"/>
    <polygon points="70,71 115,49 115,54 70,76" fill="url(#l-right)"/>
    <polygon points="25,60 70,82 70,87 25,65" fill="url(#l-left)"/>
    <polygon points="70,82 115,60 115,65 70,87" fill="url(#l-right)"/>
    <polygon points="25,71 70,93 70,124 25,102" fill="url(#l-left)"/>
    <polygon points="70,93 115,71 115,102 70,124" fill="url(#l-right)"/>
  </g>
  <!-- Text -->
  <text x="530" y="98" text-anchor="middle" class="title">BRAINCOL</text>
  <text x="530" y="130" text-anchor="middle" class="subtitle">ENTERPRISE AGENTIC SOLUTIONS</text>
</svg>
